<?xml version="1.0" encoding="utf-8"?>
<!-- Svg Vector Icons : http://www.onlinewebfonts.com/icon -->
<!DOCTYPE svg PUBLIC "-//W3C//DTD SVG 1.1//EN" "http://www.w3.org/Graphics/SVG/1.1/DTD/svg11.dtd">
<svg version="1.1" xmlns="http://www.w3.org/2000/svg" xmlns:xlink="http://www.w3.org/1999/xlink" x="0px" y="0px" viewBox="0 0 1000 1000" enable-background="new 0 0 1000 1000" xml:space="preserve">
<metadata> Svg Vector Icons : http://www.onlinewebfonts.com/icon </metadata>
<g><path d="M379.1,850c13.4,0,24.2-10.5,24.2-23.3l-24.2-490c0-12.9-10.8-23.3-24.2-23.3c-13.3,0-24.2,10.5-24.2,23.3l24.2,490C355,839.5,365.8,850,379.1,850z M935.1,173.3H717.5v-70c0-51.6-43.3-93.3-96.7-93.3H379.1c-53.4,0-96.7,41.8-96.7,93.3v70H64.9c-13.4,0-24.2,10.5-24.2,23.4c0,12.9,10.8,23.3,24.2,23.3h101.4l67.8,676.7c0,51.5,43.3,93.3,96.7,93.3h338.4c53.4,0,96.7-41.8,96.7-93.3L833.7,220h101.4c13.3,0,24.2-10.5,24.2-23.3C959.3,183.8,948.4,173.3,935.1,173.3z M330.8,103.3c0-25.8,21.7-46.7,48.3-46.7h241.7c26.7,0,48.3,20.9,48.3,46.7v70H330.8V103.3z M717.6,896.7c0,25.8-21.7,46.7-48.3,46.7H330.8c-26.7,0-48.3-20.9-48.3-46.7L214.6,220h570.8L717.6,896.7z M500,850c13.3,0,24.2-10.5,24.2-23.3v-490c0-12.9-10.8-23.3-24.2-23.3c-13.3,0-24.2,10.5-24.2,23.3v490C475.8,839.5,486.7,850,500,850z M620.9,850c13.3,0,24.2-10.5,24.2-23.3l24.2-490c0-12.9-10.8-23.3-24.2-23.3s-24.2,10.5-24.2,23.3l-24.2,490C596.7,839.5,607.5,850,620.9,850z"/></g>
</svg>